<svg width="34" height="34" viewBox="0 0 34 34" fill="none" xmlns="http://www.w3.org/2000/svg">
                   <path d="M33 17.0046C33.0084 21.0279 31.49 24.9047 28.7511 27.8524C28.1254 28.5369 27.4391 29.1635 26.7007 29.7246C23.9133 31.8493 20.5051 33 17 33C13.4948 33 10.0867 31.8493 7.29925 29.7246C6.56083 29.1635 5.87458 28.5369 5.24888 27.8524C3.48104 25.9397 2.20703 23.6245 1.53752 21.1077C0.868004 18.5909 0.82324 15.9488 1.40711 13.4108C1.99098 10.8728 3.18583 8.51567 4.88787 6.54422C6.58991 4.57277 8.74765 3.0466 11.1737 2.09827C13.5997 1.14994 16.2206 0.808138 18.8088 1.10255C21.397 1.39697 23.8741 2.3187 26.025 3.78768C28.1759 5.25665 29.9356 7.22845 31.1511 9.53178C32.3667 11.8351 33.0013 14.4003 33 17.0046Z" fill="white" stroke="black" stroke-width="2" stroke-miterlimit="10"></path> <path d="M19.5305 10.8468L18.975 11.6784L19.5305 10.8468C18.7813 10.3464 17.9006 10.0793 16.9997 10.0793C15.7915 10.0793 14.6328 10.5591 13.7785 11.4133C12.9241 12.2674 12.4441 13.426 12.4441 14.634C12.4441 15.5349 12.7113 16.4155 13.2119 17.1646C13.7125 17.9136 14.424 18.4974 15.2564 18.8421C16.0888 19.1868 17.0047 19.277 17.8884 19.1012C18.772 18.9255 19.5837 18.4917 20.2208 17.8548C20.858 17.2178 21.2919 16.4062 21.4677 15.5226C21.6435 14.6391 21.5532 13.7232 21.2084 12.8909C20.8636 12.0586 20.2796 11.3473 19.5305 10.8468ZM14.2629 10.5395C15.0729 9.99832 16.0253 9.70947 16.9997 9.70947C18.3062 9.70947 19.5591 10.2284 20.4829 11.1519C21.4066 12.0755 21.9256 13.328 21.9256 14.634C21.9256 15.6079 21.6367 16.56 21.0955 17.3699C20.5542 18.1797 19.7849 18.8109 18.8848 19.1837C17.9847 19.5564 16.9942 19.654 16.0386 19.4639C15.083 19.2739 14.2053 18.8048 13.5164 18.1161C12.8275 17.4274 12.3584 16.5499 12.1684 15.5947C11.9783 14.6395 12.0759 13.6494 12.4487 12.7496C12.8215 11.8497 13.4528 11.0806 14.2629 10.5395Z" fill="#D8D8D8" stroke="black" stroke-width="2"></path> <path d="M27.3365 27.869C26.7697 25.9371 25.6685 24.1904 24.1436 22.8395C22.1734 21.0943 19.6323 20.1308 17.0001 20.1308C14.368 20.1308 11.8269 21.0943 9.85669 22.8395C8.33176 24.1904 7.23058 25.9371 6.66376 27.869C6.56382 27.7735 6.46524 27.6765 6.36807 27.578C7.05019 25.41 8.38116 23.4977 10.1875 22.1034C12.1388 20.5973 14.5346 19.7806 16.9999 19.7813L17.0004 19.7813C19.4656 19.7806 21.8614 20.5973 23.8127 22.1034C25.6191 23.4977 26.9501 25.41 27.6322 27.578C27.535 27.6765 27.4364 27.7735 27.3365 27.869Z" fill="#D8D8D8" stroke="black" stroke-width="2"></path>
                  </svg>